<svg width="2842" height="737" viewBox="0 0 2842 737" fill="none" xmlns="http://www.w3.org/2000/svg">
<path d="M319.71 383.37C306.31 387.51 292.65 390.39 279.33 394.87C272.117 396.27 264.677 398.077 257.01 400.29C255.717 400.663 254.287 401.277 252.72 402.13C252.3 402.357 251.949 402.693 251.704 403.104C251.46 403.514 251.33 403.982 251.33 404.46C251.47 450.04 251.457 495.44 251.29 540.66C251.23 555.91 251.92 571.37 253.58 584.98C254.24 590.36 255.63 597.37 257.75 606.01C262.03 623.517 271.213 637.573 285.3 648.18C290.41 652.03 294.48 654.34 297.24 657.76C300.83 662.22 298.94 668.22 294.27 670.76C292.303 671.833 289.797 672.37 286.75 672.37C157.403 672.297 92.4867 672.257 92 672.25C77.14 672.21 68.4733 672.143 66 672.05C61.87 671.9 57.77 671.04 55.95 667.28C52.31 659.73 59.22 655.21 64.61 652C73.38 646.76 81.06 638.11 85.31 630.95C101.73 603.25 101.82 571.27 101.8 540C101.767 495.36 101.77 367.527 101.81 156.5C101.817 141.28 100.15 127.28 96.81 114.5C94.22 104.57 90.81 97.17 85.98 88.28C81.85 80.65 76.68 76.64 69.89 69.82C66.17 66.09 63.61 60.79 65.96 55.8C67.4467 52.6266 70.5433 51.03 75.25 51.01C104.437 50.8966 139.187 50.8633 179.5 50.91C212.28 50.95 272.033 50.8633 358.76 50.65C372.94 50.62 389.11 51.09 404.4 54.03C417.027 56.45 424.243 57.9133 426.05 58.42C437.157 61.5266 446.683 64.6833 454.63 67.89C470.89 74.46 485.77 84.38 499.48 95.28C503.5 98.4733 507.193 101.857 510.56 105.43C519.92 115.377 527.943 126.093 534.63 137.58C553.77 170.453 563.03 206.013 562.41 244.26C562.13 261.64 560.357 277.68 557.09 292.38C554.663 303.3 550.833 315.353 545.6 328.54C544.133 332.227 541.967 336.663 539.1 341.85C532.41 353.94 526.72 363.86 517.55 373.31C512.48 378.54 506.43 385.37 499.72 391.25C496.267 394.27 492.817 396.937 489.37 399.25C485.15 402.077 479.317 406.097 471.87 411.31C471.354 411.668 470.753 411.884 470.128 411.935C469.502 411.986 468.875 411.87 468.31 411.6C466.163 410.573 464.427 409.557 463.1 408.55C457.71 404.45 453.56 400.96 447.85 397.79C436.537 391.503 424.77 386.313 412.55 382.22C410.957 381.687 406.513 380.283 399.22 378.01C394.347 376.497 389.84 375.32 385.7 374.48C373.35 371.98 361.85 371.62 349.78 371.35C348.473 371.323 346.897 371.723 345.05 372.55C336.677 376.277 328.23 379.883 319.71 383.37ZM287.4 353.22L304.02 349.78C320.553 346.84 335.667 342.197 349.36 335.85C355.753 332.89 362.897 328.493 370.79 322.66C375.71 319.02 379.47 314.95 384.28 310.53C393.39 302.13 399.13 291.43 405.3 278.35C408.18 272.237 410.377 266.69 411.89 261.71C414.517 253.037 417.107 240.627 419.66 224.48C420.32 220.287 420.743 213.713 420.93 204.76C421.303 186.22 419.977 168.39 416.95 151.27C416.437 148.363 415.337 143.547 413.65 136.82C413.565 136.473 413.363 136.165 413.078 135.945C412.793 135.726 412.442 135.608 412.08 135.61C409.14 135.637 405.967 135.96 402.56 136.58C388.02 139.23 379.6 141.73 360.73 146.74C338.35 152.69 315.65 162 297.24 175C290.5 179.753 285.19 184.603 281.31 189.55C277.77 194.05 275.787 196.563 275.36 197.09C269.23 204.57 264.22 213.96 260.8 222.22C259.327 225.773 257.913 230.44 256.56 236.22C253.99 247.22 251.88 258.46 251.65 268.75C251.59 271.37 251.453 300.48 251.24 356.08C251.239 356.215 251.264 356.348 251.315 356.473C251.365 356.598 251.44 356.712 251.535 356.808C251.63 356.903 251.743 356.979 251.867 357.031C251.992 357.083 252.125 357.11 252.26 357.11C256.227 357.123 260.353 356.883 264.64 356.39C269.073 355.877 274.35 355.187 280.47 354.32C282.917 353.973 285.227 353.607 287.4 353.22Z" fill="#51DDC6"/>
<path d="M1949.58 215.59C1949.63 238.53 1941.06 256.34 1922.31 269.3C1906.89 279.95 1887.33 284.39 1868.78 281.78C1859.25 280.44 1849.9 278.02 1841.94 273.37C1831.7 267.39 1821.71 258.88 1816.22 248.25C1810.85 237.85 1807.94 227.49 1807.92 215.87C1807.89 204.26 1810.76 193.89 1816.09 183.47C1821.54 172.81 1831.49 164.26 1841.71 158.24C1849.65 153.56 1858.99 151.1 1868.51 149.72C1887.05 147.04 1906.63 151.4 1922.09 161.99C1940.9 174.87 1949.54 192.65 1949.58 215.59Z" fill="white"/>
<path d="M304.02 349.78L287.4 353.22C287.52 347.74 288.5 340.433 290.34 331.3C292.653 319.787 295.017 309.833 297.43 301.44C299.1 295.65 301.95 289.17 305.82 283.46C311.893 274.507 318.447 266.863 325.48 260.53C329.52 256.89 336.49 251.94 340.1 249.11C353.08 238.95 363.023 226.383 369.93 211.41C371.97 206.98 373.93 200.73 374.5 195.18C374.813 192.207 375.1 189.337 375.36 186.57C375.73 182.53 378 179.43 382.16 178.96C385.39 178.6 390.98 181.04 391.13 185.06C391.263 188.52 391.12 191.83 390.7 194.99C388.62 210.76 382.86 227.47 372.23 239.48C365.323 247.28 359.21 253.513 353.89 258.18C352.43 259.453 348.27 262.753 341.41 268.08C331.23 275.97 323.26 284.86 317.54 296.78C312.653 306.947 309.5 317.207 308.08 327.56C306.933 335.907 305.58 343.313 304.02 349.78Z" fill="#51DDC6"/>
<path d="M1634.39 266.82C1623.5 275.21 1613.83 285.1 1606.28 296.62C1602.57 302.287 1600.32 305.75 1599.53 307.01C1597.12 310.837 1593.69 317.873 1589.22 328.12C1587.69 331.62 1584.91 339.71 1580.88 352.39C1577.03 364.51 1574.82 377.4 1573.64 387.73C1573.27 391.01 1572.79 397.49 1575.96 399.32C1577.73 400.34 1580.08 401.14 1583.02 401.72C1591.57 403.4 1599.96 405.043 1608.19 406.65C1611.99 407.39 1616.51 408.023 1621.75 408.55C1626.32 409.003 1630.87 409.483 1635.4 409.99C1634.56 456.65 1634.05 487.19 1634.99 529.47C1635.16 537.42 1634.94 546.36 1639.8 553.19C1645.62 561.39 1652.71 567.95 1662.17 571.44C1663.95 572.1 1666.52 572.703 1669.89 573.25C1675.56 574.17 1680.69 575.26 1686.36 574.58C1696.11 573.407 1705.5 571.137 1714.51 567.77C1721.24 565.25 1727.34 562.807 1732.8 560.44C1736.55 558.807 1739.11 560.017 1740.46 564.07C1741.28 566.543 1742.02 569.847 1742.68 573.98C1743.68 580.26 1745.58 588.22 1746.62 593.93C1747.32 597.79 1748.06 601.093 1748.85 603.84C1750.89 610.95 1752.11 619.8 1754.03 627.78C1755.56 634.18 1756.94 640.57 1758.15 646.95C1758.6 649.323 1757.89 651.253 1756.01 652.74C1754.08 654.267 1752.63 655.177 1751.66 655.47C1736.6 660.03 1723.41 664.11 1712.1 667.71C1703.45 670.46 1693.62 672.87 1683.48 674.39C1673.73 675.857 1667.75 676.73 1665.52 677.01C1649.92 678.95 1634.09 679.22 1618.02 677.82C1614.29 677.493 1610.41 676.907 1606.39 676.06C1600.7 674.86 1595.98 674.44 1591.03 672.87C1573.73 667.34 1557.67 659.75 1543.94 647.54C1535.69 640.193 1528.06 630.473 1521.07 618.38C1518.28 613.553 1515.73 607.97 1513.4 601.63C1510.37 593.383 1508.35 587.57 1507.36 584.19C1503.58 571.42 1502.41 559.69 1500.45 541.3C1499.11 528.64 1499.92 511.39 1500.27 498.8C1500.45 492.533 1500.83 486.82 1501.4 481.66C1502.32 473.33 1502.49 465.85 1503.72 458.14C1505.13 449.26 1505.96 443.517 1506.19 440.91C1506.89 433.21 1509.55 425.87 1510.92 417.69C1511.67 413.203 1512.64 408.683 1513.83 404.13C1513.85 404.045 1513.86 403.956 1513.84 403.869C1513.82 403.783 1513.79 403.701 1513.73 403.629C1513.68 403.557 1513.61 403.498 1513.53 403.455C1513.46 403.412 1513.37 403.386 1513.28 403.38C1494.74 402.24 1476.65 401.18 1457.76 401.3C1448.91 401.36 1446.4 395.6 1446.2 388C1445.71 369.447 1445.55 346.047 1445.7 317.8C1445.73 312.39 1447.77 307.06 1454 307.1C1456.35 307.12 1460.94 307.12 1467.75 307.1C1472.29 307.087 1476.81 306.46 1481.32 305.22C1494.5 301.59 1508.96 295.78 1516.02 283.7C1521.97 273.52 1525.26 263.603 1525.89 253.95C1526.47 245.08 1527.54 235.47 1527.8 226.99C1528.2 214.243 1528.48 206.82 1528.65 204.72C1529.29 196.63 1533.34 191.51 1542.02 191.56C1572.87 191.713 1599.04 191.707 1620.51 191.54C1626.32 191.5 1632.68 191.4 1634.96 197.44C1635.37 198.54 1635.53 202.097 1635.43 208.11C1635.15 224.81 1635.06 243.327 1635.15 263.66C1635.16 264.647 1634.9 265.7 1634.39 266.82Z" fill="white"/>
<path d="M1635.4 409.99C1630.87 409.483 1626.32 409.003 1621.75 408.55C1616.51 408.023 1611.99 407.39 1608.19 406.65C1599.96 405.043 1591.57 403.4 1583.02 401.72C1580.08 401.14 1577.73 400.34 1575.96 399.32C1572.79 397.49 1573.27 391.01 1573.64 387.73C1574.82 377.4 1577.03 364.51 1580.88 352.39C1584.91 339.71 1587.69 331.62 1589.22 328.12C1593.69 317.873 1597.12 310.837 1599.53 307.01C1600.32 305.75 1602.57 302.287 1606.28 296.62C1613.83 285.1 1623.5 275.21 1634.39 266.82C1634.52 267.393 1634.87 267.507 1635.45 267.16C1635.69 267.013 1636.02 266.687 1636.44 266.18C1638.85 263.233 1641.84 260.883 1645.4 259.13C1650.76 256.49 1657.04 253.68 1664.23 250.7C1676.5 245.627 1689.25 242.657 1702.5 241.79C1713.51 241.08 1726.51 240.99 1738.72 241.64C1740.96 241.76 1744.33 242.26 1748.83 243.14C1761.57 245.653 1769.39 247.253 1772.28 247.94C1777.33 249.15 1785.85 251.94 1787.51 257.25C1788.9 261.73 1789.55 267.03 1788.89 271.98C1788.43 275.53 1788.12 278.31 1788.07 281.94C1787.88 296.24 1785.94 308.69 1782.63 322.71C1779.67 335.223 1774.9 346.93 1768.32 357.83C1767.25 359.597 1764.49 363.583 1760.04 369.79C1757.03 373.99 1752.85 378.32 1747.52 382.78C1746.06 384 1742 386.727 1735.34 390.96C1730.73 393.893 1726.45 396.25 1722.5 398.03C1706.69 405.15 1689.94 409.167 1672.24 410.08C1664.73 410.467 1657.23 410.877 1649.76 411.31C1644.96 411.59 1640.17 411.15 1635.4 409.99Z" fill="#51DDC6"/>
<path d="M2514.95 523.06C2514.92 523.06 2514.89 523.066 2514.87 523.077C2514.84 523.088 2514.82 523.104 2514.8 523.125C2514.78 523.146 2514.76 523.17 2514.75 523.197C2514.74 523.223 2514.74 523.252 2514.74 523.28C2516.02 542.22 2528.82 558.43 2543.24 569.96C2550.17 575.493 2558.5 579.797 2568.23 582.87C2589.28 589.523 2610.46 589.303 2631.75 582.21C2633.79 581.53 2635.58 580.84 2637.11 580.14C2641.05 578.32 2644.48 577.43 2648.02 575.31C2654.56 571.37 2660.75 566.51 2665.8 562.06C2668.95 559.293 2671.41 556.35 2673.2 553.23C2673.35 552.979 2673.54 552.758 2673.77 552.58C2677.06 550.04 2681.91 551.46 2685.52 553.01C2691.81 555.7 2697.92 559.57 2704.37 562.76C2710.41 565.747 2716.4 568.763 2722.33 571.81C2733.86 577.737 2745.99 584.157 2758.71 591.07C2763.81 593.84 2767.68 596.35 2763.67 602.17C2761.7 605.02 2759.6 608.37 2757.34 610.89C2753.25 615.437 2751.01 617.957 2750.61 618.45C2746.07 624.02 2739.65 629.49 2735.89 633.17C2733.92 635.097 2731.37 637.18 2728.26 639.42C2725.06 641.72 2721.88 644.74 2717.8 647.36C2697.24 660.58 2674.43 670.38 2650.61 675.05C2645.56 676.05 2642.13 676.93 2638.6 677.32C2622.53 679.113 2608.5 680.067 2596.52 680.18C2591.33 680.233 2581.25 679.683 2566.27 678.53C2561.8 678.183 2554.34 676.977 2543.9 674.91C2536.11 673.363 2528.81 671.423 2522.01 669.09C2510.89 665.27 2501.49 661.54 2493.8 657.9C2472.71 647.92 2453.75 634.023 2436.92 616.21C2431.77 610.76 2427.38 604.48 2422.08 597.42C2420.06 594.733 2416.45 588.547 2411.24 578.86C2407.29 571.51 2405.3 564.05 2402.01 556.08C2400.98 553.567 2399.96 550.447 2398.96 546.72C2397.03 539.507 2395.58 532.1 2394.59 524.5C2391.63 501.667 2392.04 479.263 2395.82 457.29C2397.33 448.563 2399.22 441.037 2401.51 434.71C2403.12 430.257 2404.05 427.673 2404.28 426.96C2408.03 415.46 2413.27 404.77 2419.68 393.89C2421.87 390.17 2424.2 386.82 2426.67 383.84C2430.08 379.72 2432.86 374.86 2436.62 370.86C2448.41 358.32 2459.89 348.23 2471.07 340.59C2481.18 333.677 2493.37 327.183 2507.64 321.11C2518.77 316.377 2530.86 312.86 2543.92 310.56C2560.95 307.567 2578.47 306.267 2596.5 306.66C2606.35 306.867 2614.51 307.49 2621 308.53C2630.27 310.01 2638.52 311.597 2645.77 313.29C2648.05 313.82 2650.59 314.95 2653.21 315.75C2665.09 319.33 2675.91 323.7 2685.68 328.86C2692.17 332.287 2700.11 337.19 2709.52 343.57C2714.26 346.783 2719.93 351.473 2726.53 357.64C2732.16 362.907 2736.98 368.18 2741 373.46C2754.05 390.58 2763.46 408.853 2769.23 428.28C2771.89 437.233 2774.16 448.023 2776.05 460.65C2778.68 478.27 2778.46 495.88 2777.62 513.18C2777.37 518.26 2774.72 521.47 2769.67 522.81C2769.31 522.903 2768.95 522.95 2768.58 522.95L2514.95 523.06ZM2656.72 454.06C2655.54 442.52 2651.74 432.02 2645.31 422.56C2640.85 415.993 2634.99 410.447 2627.74 405.92C2611.79 395.97 2593.26 393.24 2574.62 395.79C2567.29 396.79 2560.97 398.59 2555.65 401.19C2549.6 404.15 2543.94 407.58 2538.69 411.48C2531.35 416.93 2525.97 424.55 2521.34 432.86C2517.87 439.107 2515.82 445.997 2515.21 453.53C2515.2 453.653 2515.22 453.776 2515.26 453.892C2515.3 454.008 2515.36 454.115 2515.44 454.205C2515.53 454.295 2515.63 454.367 2515.74 454.416C2515.86 454.465 2515.98 454.49 2516.1 454.49H2656.32C2656.38 454.49 2656.43 454.479 2656.48 454.457C2656.53 454.435 2656.58 454.402 2656.62 454.362C2656.66 454.321 2656.68 454.273 2656.7 454.221C2656.72 454.169 2656.73 454.114 2656.72 454.06Z" fill="white"/>
<path d="M629.56 385.31C633.58 380.043 638.247 374.517 643.56 368.73C646.593 365.423 649.443 362.667 652.11 360.46C655.99 357.25 659.68 353.29 664.11 350.02C671.87 344.3 679.84 338.82 688.55 334.66C694.2 331.96 698.58 329.01 704.21 326.64C711.883 323.413 719.713 320.43 727.7 317.69C736.76 314.583 746.617 312.383 757.27 311.09C766.57 309.963 772.73 309.277 775.75 309.03C799.337 307.077 822.553 308.307 845.4 312.72C852.2 314.04 859.3 316.45 866.26 318.48C870.12 319.607 877.477 322.403 888.33 326.87C891.61 328.223 894.767 329.833 897.8 331.7C901.75 334.13 905.65 335.83 910.16 338.76C920.707 345.62 927.094 350.023 929.32 351.97C933.46 355.583 936.073 357.84 937.16 358.74C942.58 363.21 948.39 370.01 951.97 374.02C963.05 386.42 971.893 400.32 978.5 415.72C984.267 429.153 988.56 442.437 991.38 455.57C992.107 458.977 992.997 466.287 994.05 477.5C994.483 482.047 994.474 492.957 994.02 510.23C993.9 514.89 993.08 518.88 992.58 523.52C991.42 534.26 988.98 545.38 984.67 555.71C984.19 556.857 983.297 559.127 981.99 562.52C977.317 574.72 971.3 586.263 963.94 597.15C960.8 601.78 957.41 605.61 953.24 611.19C952.776 611.82 952.224 612.386 951.6 612.87C950.947 613.377 948.293 616.133 943.64 621.14C939.13 626.01 932.51 631.67 926.87 635.98C896.07 659.473 861.277 673.283 822.49 677.41C808.663 678.883 794.617 679.163 780.35 678.25C774.29 677.857 768.897 677.243 764.17 676.41C757.48 675.24 750.16 674.57 742.77 672.69C730.497 669.563 718.32 665.583 706.24 660.75C703.16 659.523 697.42 656.65 689.02 652.13C675.48 644.85 662.86 635.25 651.67 625.17C649.823 623.51 645.69 619.143 639.27 612.07C624.19 595.46 614.4 577.57 606.37 556.04C600.27 539.69 597.36 523.11 596.38 506.18C596.207 503.24 596.143 497.593 596.19 489.24C596.34 462.77 601.85 437.81 613.47 413.7C615.37 409.747 618.043 404.59 621.49 398.23C624.423 392.817 627.113 388.51 629.56 385.31ZM735.23 548.3C754.04 569.63 780.05 579.48 808.46 575.23C822.3 573.157 834.537 567.65 845.17 558.71C852.063 552.91 857.543 546.807 861.61 540.4C865.05 534.98 867.973 528.233 870.38 520.16C872.01 514.72 872.37 510.72 873.56 503.28C876.4 485.46 871.74 466.19 863.79 449.96C860.13 442.487 855.78 436.337 850.74 431.51C845.08 426.103 838.967 421.637 832.4 418.11C828.57 416.06 825.9 414.35 822.36 413.25C809.16 409.117 795.377 408.057 781.01 410.07C765.27 412.27 751.35 421.01 739.91 432.16C733.15 438.74 729.33 445.51 724.77 454.38C722.397 458.993 720.617 464.22 719.43 470.06C718.003 477.067 717.143 482.55 716.85 486.51C715.597 503.323 718.68 519.233 726.1 534.24C728.88 539.867 731.923 544.553 735.23 548.3Z" fill="white"/>
<path d="M1364.15 632.65C1355.8 639.543 1347.87 645.117 1340.36 649.37C1322.63 659.41 1303.87 667.66 1284.62 672.1C1274.41 674.46 1260.36 677.2 1249.08 678.01C1231.44 679.27 1215.81 679.03 1202.19 677.29C1185.12 675.11 1171.67 672.87 1156.5 667.25C1147.53 663.93 1142.31 661.98 1140.83 661.4C1120.14 653.28 1101.93 640.72 1084.15 625.1C1080.28 621.69 1076.04 616.74 1073.47 614.18C1070.33 611.05 1068.88 609.73 1066.71 606.78C1063.48 602.4 1058.37 596.47 1055.17 590.91C1050.68 583.117 1047.53 577.45 1045.73 573.91C1042.34 567.25 1038.79 558.037 1035.06 546.27C1031.85 536.123 1029.73 525.117 1028.7 513.25C1027.07 494.47 1027.81 475.863 1030.9 457.43C1033.01 444.88 1037.64 431.43 1042.41 419.39C1044.82 413.3 1048.74 407.1 1051.19 402.38C1055.52 394.027 1061.36 385.537 1068.69 376.91C1071.4 373.717 1074.15 370.673 1076.94 367.78C1087.31 356.99 1098.56 348.23 1110.75 340.48C1114.32 338.2 1117.82 336.267 1121.23 334.68C1126.18 332.38 1130.3 329.59 1135.46 327.39C1150.91 320.783 1164.06 316.213 1174.91 313.68C1180.98 312.267 1190.15 310.92 1202.42 309.64C1218.76 307.933 1233.37 307.643 1246.25 308.77C1254.76 309.517 1264.67 310.8 1276 312.62C1279.06 313.113 1282.48 313.887 1286.27 314.94C1292.28 316.607 1295.67 317.573 1296.44 317.84C1308.24 322.02 1321.25 326.76 1333.28 333.57C1342.69 338.903 1350.62 343.953 1357.07 348.72C1368.88 357.467 1379.91 368.233 1390.17 381.02C1393.8 385.55 1397.1 391.19 1400.88 396.22C1402.18 397.933 1403.42 400.077 1404.61 402.65C1407.11 408.04 1410.89 414.23 1413.28 420.49C1418.78 434.943 1422.69 449.197 1425.01 463.25C1430.21 494.75 1427.54 525.9 1417 556.7C1415.01 562.51 1412.13 567.96 1409.47 574.01C1404.36 585.62 1397.73 596.77 1389.51 606.73C1380.92 617.143 1372.46 625.783 1364.15 632.65ZM1177.02 557.65C1180.53 560.697 1183.27 562.78 1185.26 563.9C1192.73 568.13 1199.66 571.86 1207.91 573.75C1220.34 576.597 1232.72 576.847 1245.05 574.5C1258.37 571.97 1270.66 565.41 1280.8 555.71C1284.74 551.937 1286.95 549.76 1287.44 549.18C1292.49 543.107 1296.46 536.337 1299.36 528.87C1301.63 523.023 1303.03 518.907 1303.57 516.52C1308.6 494.253 1306.54 473.04 1297.39 452.88C1293.25 443.747 1287.95 436.14 1281.48 430.06C1274.55 423.533 1266.78 418.38 1258.16 414.6C1246.24 409.36 1231.91 408.33 1218.86 409.32C1202.08 410.59 1184.3 419.73 1172.67 431.54C1168.83 435.44 1166.72 437.32 1164.19 441.45C1158.68 450.43 1154.11 458.7 1151.83 468.07C1149.03 479.603 1148.18 491.17 1149.28 502.77C1150.75 518.26 1156.07 531.34 1164.47 544.13C1168.02 549.55 1172.72 553.92 1177.02 557.65Z" fill="white"/>
<path d="M1931.39 316.51H1826.77C1821.23 316.51 1816.73 321.005 1816.73 326.55V660.91C1816.73 666.455 1821.23 670.95 1826.77 670.95H1931.39C1936.93 670.95 1941.43 666.455 1941.43 660.91V326.55C1941.43 321.005 1936.93 316.51 1931.39 316.51Z" fill="white"/>
<path d="M2185.39 549.15C2185.41 549.197 2185.45 549.237 2185.49 549.264C2185.53 549.291 2185.58 549.304 2185.64 549.301C2185.69 549.297 2185.74 549.278 2185.78 549.246C2185.82 549.214 2185.85 549.17 2185.86 549.12C2186.54 546.153 2187.17 544.103 2187.74 542.97C2190.07 538.39 2191.37 531.64 2193.71 527.07C2195.28 524.01 2195.76 520.69 2197.22 516.7C2204.75 496.12 2209.76 483.91 2216.18 465.18C2219.07 456.76 2222.7 446.893 2227.07 435.58C2230.41 426.92 2234.39 415.63 2238.36 405.95C2239.36 403.51 2239.96 400.23 2240.71 398.24C2246.18 383.59 2250 371.99 2255.45 358.43C2259.3 348.817 2262.7 339.557 2265.65 330.65C2267.5 325.06 2269 319.71 2274.29 317.42C2275.65 316.827 2278.02 316.537 2281.41 316.55C2312.06 316.683 2342.34 316.673 2372.25 316.52C2379.44 316.487 2385.61 316.547 2390.74 316.7C2398.26 316.92 2396.8 324 2394.72 328.47C2390.57 337.39 2386.76 346.68 2383.29 356.34C2380.46 364.24 2376.76 370.32 2373.47 378.44C2369.78 387.553 2363.09 403.8 2353.4 427.18C2352.5 429.353 2351.55 431.41 2350.55 433.35C2348.98 436.36 2348.46 439.47 2346.88 443.04C2342.87 452.147 2339.89 459.173 2337.96 464.12C2331.14 481.57 2324.12 497.88 2316.88 514.96C2314.02 521.72 2311.7 528.04 2308.57 536.08C2307.88 537.873 2306.87 540.1 2305.56 542.76C2304.49 544.947 2303.48 547.173 2302.55 549.44C2299.4 557.053 2296.38 564.407 2293.48 571.5C2292.28 574.433 2291.26 576.773 2290.42 578.52C2288.8 581.88 2288.06 584.97 2286.64 587.96C2284.35 592.78 2282.39 598.56 2279.97 603.03C2278.47 605.82 2277.73 609.23 2276.16 612.84C2269.36 628.5 2262.98 643.973 2257.01 659.26C2255.62 662.833 2254.13 665.687 2252.56 667.82C2250.62 670.46 2247.92 671.08 2244.47 671.07C2204.61 670.983 2164.38 670.97 2123.77 671.03C2119.53 671.03 2116.37 664.96 2114.75 661.18C2110.08 650.273 2107.49 644.267 2106.99 643.16C2098.8 625.13 2090.6 603.95 2080.59 581.19C2078.07 575.47 2075.56 569.4 2073.05 562.98C2070.05 555.32 2066.25 547.77 2063.88 541.65C2060.61 533.217 2056.62 523.69 2051.89 513.07C2047.38 502.92 2043.87 493.29 2038.93 481.6C2031.8 464.727 2026.75 452.773 2023.79 445.74C2019.38 435.287 2015.36 425.637 2011.75 416.79C2001.95 392.797 1990.96 366.207 1978.77 337.02C1975.52 329.233 1973.53 324.203 1972.82 321.93C1971.47 317.64 1976.04 316.58 1979.32 316.61C2000.29 316.79 2036.38 316.753 2087.59 316.5C2093.66 316.46 2097.46 316.22 2100.93 320.55C2102.48 322.483 2103.77 324.95 2104.81 327.95C2115.17 357.783 2126.98 390.593 2140.25 426.38C2142.4 432.2 2143.95 436.527 2144.88 439.36C2146.9 445.5 2149.12 450.24 2151.24 456.61C2152.23 459.597 2153.77 463.75 2155.84 469.07C2160.2 480.26 2164.72 493.45 2168.08 502.69C2168.84 504.78 2170.2 507.11 2170.71 509.26C2171.98 514.54 2174.83 520.25 2176.93 526.07C2181.25 538.05 2184.07 545.743 2185.39 549.15Z" fill="white"/>
<path d="M279.33 394.87C292.65 390.39 306.31 387.51 319.71 383.37C319.563 383.643 319.577 383.91 319.75 384.17C319.816 384.271 319.914 384.347 320.028 384.386C320.142 384.426 320.265 384.427 320.38 384.39C325.173 382.843 330.46 382.02 336.24 381.92C355.08 381.59 373.63 382.14 390.43 386.48C397.45 388.293 401.25 389.283 401.83 389.45C405.55 390.53 411.65 392.653 420.13 395.82C423.617 397.12 428.143 399.377 433.71 402.59C439.29 405.82 450.13 410.9 456.98 416.53C462.907 421.403 468.75 426.303 474.51 431.23C477.817 434.057 481.207 437.413 484.68 441.3C495.1 452.953 504.01 465.773 511.41 479.76C524.757 504.967 533.707 530.78 538.26 557.2C540.647 571.053 541.953 586.79 542.18 604.41C542.28 612.297 541.887 621.18 541 631.06C540.033 641.88 539.07 650.733 538.11 657.62C537.2 664.19 534.84 670.17 527.77 671.8C526.377 672.12 523.83 672.143 520.13 671.87C513.283 671.37 505.753 670.47 497.54 669.17C489.293 667.87 481.893 666.223 475.34 664.23C452.653 657.337 432.16 647.71 413.86 635.35C401.58 627.05 388.92 617.05 378.31 605.71C369.45 596.237 361.613 586.85 354.8 577.55C351.89 573.57 349.79 568.68 347.24 565.15C342.813 559.01 337.727 550.47 331.98 539.53C321.26 519.09 312.583 499.527 305.95 480.84C300.1 464.35 297.28 457.33 293.65 445.31C292.417 441.203 291.137 437.107 289.81 433.02C285.743 420.473 282.25 407.757 279.33 394.87ZM448.45 585.36C444.203 579.553 441.303 575.03 439.75 571.79C437.097 566.263 434.48 560.15 431.9 553.45C430.287 549.263 428.647 543.53 426.98 536.25C424.327 524.623 421.98 515.713 419.94 509.52C417.04 500.72 413.553 492.403 409.48 484.57C405.193 476.323 403.027 472.163 402.98 472.09C400.36 467.71 397.743 463.877 395.13 460.59C394.21 459.43 388.167 453.337 377 442.31C367.78 433.22 359.44 429.65 345.77 422.66C341.41 420.44 337.55 419.78 334.15 423.42C329.64 428.22 332.81 434.27 337.98 436.82C346.51 441.03 355.12 445.32 362.37 451.02C368.537 455.867 372.073 458.793 372.98 459.8C376.36 463.54 381.407 469.82 388.12 478.64C390.853 482.233 393.753 487.22 396.82 493.6C398.48 497.03 399.71 501.34 400.59 504.58C400.957 505.887 401.967 508.607 403.62 512.74C405.673 517.853 407.093 522.15 407.88 525.63C410.05 535.29 412.08 545.77 415.8 555.31C416.18 556.277 417.21 559.12 418.89 563.84C419.637 565.953 422.507 571.907 427.5 581.7C427.83 582.35 427.87 582.77 428.15 583.25C431.73 589.47 434.493 594.087 436.44 597.1C436.824 597.696 437.304 598.226 437.86 598.67C439.08 599.65 440.143 600.883 441.05 602.37C441.309 602.795 441.625 603.182 441.99 603.52C444.317 605.707 449.037 609.887 456.15 616.06C456.763 616.593 457.493 617.073 458.34 617.5C458.645 617.652 458.922 617.855 459.16 618.1C464.467 623.56 470.753 627.703 478.02 630.53C484.02 632.86 494.46 637.19 497.4 627.86C498.48 624.43 498.3 620.09 494.6 618.37C491.867 617.103 489.12 616.267 486.36 615.86C486.048 615.814 485.742 615.723 485.45 615.59C478.683 612.483 474.66 610.483 473.38 609.59C469.6 606.957 464.81 602.91 459.01 597.45C455.343 593.997 451.823 589.967 448.45 585.36Z" fill="#E0FCF8"/>
<path d="M459.01 597.45C464.81 602.91 469.6 606.957 473.38 609.59C474.66 610.483 478.683 612.483 485.45 615.59C485.742 615.723 486.048 615.814 486.36 615.86C489.12 616.267 491.867 617.103 494.6 618.37C498.3 620.09 498.48 624.43 497.4 627.86C494.46 637.19 484.02 632.86 478.02 630.53C470.753 627.703 464.467 623.56 459.16 618.1C458.922 617.855 458.644 617.652 458.34 617.5C457.493 617.073 456.763 616.593 456.15 616.06C449.037 609.887 444.317 605.707 441.99 603.52C441.625 603.182 441.309 602.795 441.05 602.37C440.143 600.883 439.08 599.65 437.86 598.67C437.304 598.226 436.824 597.696 436.44 597.1C434.493 594.087 431.73 589.47 428.15 583.25C427.87 582.77 427.83 582.35 427.5 581.7C422.507 571.907 419.637 565.953 418.89 563.84C417.21 559.12 416.18 556.277 415.8 555.31C412.08 545.77 410.05 535.29 407.88 525.63C407.093 522.15 405.673 517.853 403.62 512.74C401.967 508.607 400.957 505.887 400.59 504.58C399.71 501.34 398.48 497.03 396.82 493.6C393.753 487.22 390.853 482.233 388.12 478.64C381.407 469.82 376.36 463.54 372.98 459.8C372.073 458.793 368.537 455.867 362.37 451.02C355.12 445.32 346.51 441.03 337.98 436.82C332.81 434.27 329.64 428.22 334.15 423.42C337.55 419.78 341.41 420.44 345.77 422.66C359.44 429.65 367.78 433.22 377 442.31C388.167 453.337 394.21 459.43 395.13 460.59C397.743 463.877 400.36 467.71 402.98 472.09C403.027 472.163 405.193 476.323 409.48 484.57C413.553 492.403 417.04 500.72 419.94 509.52C421.98 515.713 424.327 524.623 426.98 536.25C428.647 543.53 430.287 549.263 431.9 553.45C434.48 560.15 437.097 566.263 439.75 571.79C441.303 575.03 444.203 579.553 448.45 585.36C451.823 589.967 455.343 593.997 459.01 597.45Z" fill="#51DDC6"/>
</svg>
